<svg width="188" height="56" viewBox="0 0 188 56" fill="none" xmlns="http://www.w3.org/2000/svg">
<rect width="188" height="56" rx="28" fill="#F4F4F6"/>
<g clip-path="url(#clip0_1_6)">
<path d="M48 28C48 16.9543 39.0457 8 28 8C16.9543 8 8 16.9543 8 28C8 39.0457 16.9543 48 28 48C39.0457 48 48 39.0457 48 28Z" fill="url(#paint0_linear_1_6)"/>
<path fill-rule="evenodd" clip-rule="evenodd" d="M19.217 26.76C19.217 24.57 19.217 23.474 19.644 22.636C20.0192 21.8997 20.6177 21.3011 21.354 20.926C22.191 20.5 23.287 20.5 25.478 20.5H30.565C32.757 20.5 33.852 20.5 34.689 20.927C35.4253 21.3021 36.0239 21.9007 36.399 22.637C36.521 22.875 36.609 23.135 36.67 23.435H33.565C32.655 23.435 32.201 23.435 31.825 23.517C31.1531 23.6631 30.5373 23.9992 30.051 24.4853C29.5646 24.9714 29.2283 25.5871 29.082 26.259C29 26.636 29 27.091 29 28C29 28.91 29 29.364 29.082 29.74C29.2281 30.4119 29.5642 31.0277 30.0503 31.5141C30.5364 32.0004 31.1521 32.3367 31.824 32.483C32.201 32.565 32.656 32.565 33.565 32.565H36.67C36.608 32.865 36.521 33.125 36.4 33.363C36.0248 34.0992 35.4262 34.6978 34.69 35.073C33.852 35.5 32.757 35.5 30.565 35.5H25.478C23.287 35.5 22.191 35.5 21.354 35.073C20.6178 34.6978 20.0192 34.0992 19.644 33.363C19.217 32.526 19.217 31.431 19.217 29.239V26.76ZM30.304 28C30.304 26.783 30.304 26.175 30.53 25.705C30.755 25.239 31.13 24.863 31.596 24.639C32.066 24.413 32.674 24.413 33.891 24.413H35.196C36.412 24.413 37.021 24.413 37.49 24.639C37.956 24.863 38.332 25.239 38.557 25.705C38.783 26.175 38.783 26.783 38.783 28C38.783 29.217 38.783 29.825 38.556 30.295C38.332 30.761 37.956 31.136 37.49 31.361C37.02 31.587 36.413 31.587 35.196 31.587H33.89C32.673 31.587 32.065 31.587 31.596 31.361C31.1298 31.1369 30.7536 30.761 30.529 30.295C30.303 29.825 30.303 29.217 30.303 28H30.304ZM34.544 28C34.544 28.3461 34.4065 28.678 34.1618 28.9228C33.917 29.1675 33.5851 29.305 33.239 29.305C32.8929 29.305 32.561 29.1675 32.3162 28.9228C32.0715 28.678 31.934 28.3461 31.934 28C31.934 27.6539 32.0715 27.322 32.3162 27.0772C32.561 26.8325 32.8929 26.695 33.239 26.695C33.5851 26.695 33.917 26.8325 34.1618 27.0772C34.4065 27.322 34.544 27.6539 34.544 28Z" fill="white"/>
<path d="M63.63 38H67.363L69.483 24.53H69.547L71.667 38H75.399L78.497 19.68H75.323L73.47 33.583H73.394L71.235 19.682H67.782L65.637 33.583H65.573L63.707 19.682H60.533L63.63 38ZM78.281 38H81.607L84.603 23.223H85.695V19.68H82.598L78.281 38ZM80.833 33.874H88.438L87.878 31.297H81.392L80.833 33.874ZM87.676 38H91.002L86.686 19.68H84.667V23.223L87.676 38ZM92.576 38H101.476V35.182H95.839V19.68H92.576V38ZM103.113 38H112.013V35.182H106.376V19.68H103.113V38ZM113.663 38H122.766V35.182H116.913V30.04H122.448V27.387H116.913V22.499H122.766V19.681H113.663V38ZM127.793 38H131.043V22.499H134.699V19.681H124.111V22.499H127.793V38ZM142.431 31.995H146.049C147.242 31.995 148.245 31.745 149.058 31.246C149.87 30.746 150.484 30.04 150.898 29.126C151.322 28.203 151.533 27.116 151.533 25.863V25.825C151.533 24.573 151.322 23.485 150.898 22.563C150.484 21.64 149.87 20.929 149.058 20.43C148.245 19.93 147.242 19.68 146.049 19.68H142.431V22.398H145.465C146.413 22.398 147.111 22.681 147.56 23.248C148.008 23.807 148.232 24.67 148.232 25.838V25.863C148.232 27.014 148.008 27.873 147.56 28.44C147.111 29.007 146.409 29.291 145.452 29.291H142.431V31.995ZM140.806 38H144.056V19.68H140.806V38ZM151.381 38H154.707L157.703 23.223H158.795V19.68H155.697L151.381 38ZM153.933 33.874H161.537L160.979 31.297H154.491L153.933 33.874ZM160.775 38H164.102L159.785 19.68H157.767V23.223L160.775 38ZM167.593 38H170.843V31.335L175.261 19.681H171.985L169.256 27.742H169.18L166.463 19.681H163.188L167.593 31.335V38Z" fill="black"/>
</g>
<defs>
<linearGradient id="paint0_linear_1_6" x1="28" y1="8" x2="28" y2="48" gradientUnits="userSpaceOnUse">
<stop stop-color="#60BFEF"/>
<stop offset="1" stop-color="#0094FE"/>
</linearGradient>
<clipPath id="clip0_1_6">
<rect width="168" height="40" fill="white" transform="translate(8 8)"/>
</clipPath>
</defs>
</svg>
